<svg width="71" height="97" viewBox="0 0 71 97" fill="none" xmlns="http://www.w3.org/2000/svg">
<path d="M67.9393 72.5065C67.6466 71.8198 67.1139 71.2749 66.4495 70.9824C61.9911 68.7344 58.8105 62.5822 58.7963 55.2172C58.7963 48.7692 61.2953 43.1789 64.9728 40.4281C65.2866 40.1866 65.5493 39.8803 65.7444 39.5284C65.9396 39.1765 66.0629 38.7864 66.1069 38.3826C66.1508 37.9788 66.1144 37.5699 65.9999 37.1814C65.8854 36.7929 65.6954 36.4331 65.4415 36.1245C61.409 31.3328 55.7152 28.1237 49.5671 28.9518C45.776 29.4695 42.5386 32.2646 38.6765 32.6935C35.8225 33.004 33.636 31.7913 31.1512 30.6526C28.8074 29.5071 26.2611 28.8803 23.673 28.8115C21.0849 28.7428 18.5114 29.2337 16.1146 30.2533C-4.36015 39.1859 1.2483 69.1337 10.6905 84.47C14.4674 90.6962 21.2688 96.7597 28.6664 92.885C31.9605 91.1842 35.1836 88.0637 39.1309 89.1433C44.6259 90.6666 48.3318 96.3456 54.3805 93.299C62.3461 89.2616 66.4353 79.56 68.0256 74.6796C68.2628 73.9701 68.232 73.1932 67.9393 72.5065Z" stroke="#E95322" stroke-width="4.36703" stroke-linecap="round" stroke-linejoin="round"/>
<path d="M36.7596 21.6756C36.7596 21.6756 32.003 3.08573 49.5386 2.18359C49.5812 2.18359 54.5508 18.0227 36.7596 21.6756Z" stroke="#E95322" stroke-width="4.36703" stroke-linecap="round" stroke-linejoin="round"/>
</svg>
