<svg width="25" height="25" viewBox="0 0 25 25" fill="none" xmlns="http://www.w3.org/2000/svg">
<path d="M15.5626 5.40592C15.9564 4.95205 16.2567 4.42485 16.4462 3.85461C16.6357 3.28437 16.7106 2.68231 16.6668 2.08301C15.4578 2.1806 14.3355 2.74921 13.5418 3.66634C13.1617 4.1059 12.8736 4.61726 12.6947 5.17014C12.5158 5.72302 12.4496 6.30618 12.5001 6.88509C13.0899 6.89 13.6728 6.75915 14.2039 6.50265C14.7349 6.24616 15.1998 5.8709 15.5626 5.40592ZM18.1876 13.1559C18.1946 12.3577 18.4049 11.5745 18.7985 10.8801C19.1922 10.1857 19.7563 9.60307 20.4376 9.18717C20.0076 8.56763 19.4392 8.05679 18.7775 7.69517C18.1157 7.33354 17.3788 7.13108 16.6251 7.10384C15.0001 6.93717 13.5001 8.05176 12.6355 8.05176C11.771 8.05176 10.5522 7.12467 9.19804 7.14551C8.31276 7.17467 7.45014 7.43278 6.69434 7.89466C5.93853 8.35654 5.31534 9.00643 4.88554 9.78092C3.0522 12.9684 4.41679 17.708 6.25012 20.2809C7.08346 21.5413 8.12512 22.9684 9.50012 22.9163C10.8751 22.8643 11.323 22.0622 12.9168 22.0622C14.5105 22.0622 15.0001 22.9163 16.3543 22.8851C17.7085 22.8538 18.6668 21.5934 19.5418 20.333C20.1616 19.4179 20.6458 18.418 20.9793 17.3643C20.1537 17.0122 19.4494 16.426 18.9533 15.6781C18.4572 14.9302 18.191 14.0534 18.1876 13.1559Z" fill="white"/>
</svg>
