<svg width="81" height="60" viewBox="0 0 81 60" fill="none" xmlns="http://www.w3.org/2000/svg">
<path d="M2.5 43.8574V45.1925C2.50291 48.4577 3.73147 51.5883 5.91581 53.896C8.10015 56.2038 11.0617 57.5 14.1494 57.5H66.8509C69.9386 57.5 72.8998 56.2038 75.0842 53.896C77.2685 51.5883 78.4971 48.4577 78.5 45.1925V14.8191C78.5 13.2013 78.1987 11.5994 77.6133 10.1048C77.0278 8.61018 76.1697 7.25214 75.0879 6.10822C74.0062 4.9643 72.722 4.05678 71.3086 3.4377C69.8953 2.81861 68.3807 2.5 66.8509 2.5H14.1494C12.6196 2.5 11.1047 2.81861 9.69135 3.4377C8.278 4.05678 6.99379 4.9643 5.91206 6.10822C4.83033 7.25214 3.97215 8.61018 3.38672 10.1048C2.80129 11.5994 2.5 13.2013 2.5 14.8191V43.7063M2.52196 15.7711H78.4671M13.183 30.6676H19.4853M13.183 42.197H28.4226M48.2735 42.197H54.5208M62.3602 42.197H68.6075" stroke="#E95322" stroke-width="5" stroke-linecap="round" stroke-linejoin="round"/>
</svg>
