<svg width="69" height="71" viewBox="0 0 69 71" fill="none" xmlns="http://www.w3.org/2000/svg">
<g filter="url(#filter0_d_338_3878)">
<path d="M53.5098 41.6099H24.8398C23.5624 41.6566 22.3086 41.257 21.2939 40.4795C20.2793 39.7021 19.5671 38.5954 19.2798 37.3499C19.2798 37.3499 20.4599 50.2898 33.3799 50.8298H56.2096C56.3122 50.8233 56.4156 50.8199 56.5198 50.8199C59.1597 50.8199 61.2998 52.96 61.2998 55.5999C61.2998 58.2399 59.1597 60.3799 56.5198 60.3799C53.8799 60.3799 51.7398 58.2399 51.7398 55.5999C51.7398 53.0642 53.7143 50.9897 56.2096 50.8298H33.3799C20.4599 50.2898 19.2798 37.3499 19.2798 37.3499L15.4697 13.0401H55.6099C56.4994 13.0313 57.3796 13.2202 58.187 13.5936C58.9945 13.9669 59.7088 14.5151 60.2783 15.1985C60.8478 15.8819 61.2584 16.6834 61.48 17.545C61.7016 18.4065 61.7291 19.3066 61.5601 20.18L59.0601 37.3499C58.7748 38.5946 58.0643 39.701 57.0513 40.4786C56.0383 41.2561 54.7859 41.6561 53.5098 41.6099Z" fill="white"/>
<path d="M26.2198 60.3799C28.8597 60.3799 30.9998 58.2399 30.9998 55.5999C30.9998 52.96 28.8597 50.8199 26.2198 50.8199C23.5799 50.8199 21.4398 52.96 21.4398 55.5999C21.4398 58.2399 23.5799 60.3799 26.2198 60.3799Z" fill="white"/>
<path d="M19.2798 37.3499C19.5671 38.5954 20.2793 39.7021 21.2939 40.4795C22.3086 41.257 23.5624 41.6566 24.8398 41.6099H53.5098C54.7859 41.6561 56.0383 41.2561 57.0513 40.4786C58.0643 39.701 58.7748 38.5946 59.0601 37.3499L61.5601 20.18C61.7291 19.3066 61.7016 18.4065 61.48 17.545C61.2584 16.6834 60.8478 15.8819 60.2783 15.1985C59.7088 14.5151 58.9945 13.9669 58.187 13.5936C57.3796 13.2202 56.4994 13.0313 55.6099 13.0401H15.4697M19.2798 37.3499L15.4697 13.0401M19.2798 37.3499C19.2798 37.3499 20.4599 50.2898 33.3799 50.8298H56.52M15.4697 13.0401L14.3496 5.90991C14.1724 4.95383 13.6668 4.08972 12.9199 3.46704C12.1731 2.84437 11.2321 2.50237 10.2598 2.5H6.5M30.9998 55.5999C30.9998 58.2399 28.8597 60.3799 26.2198 60.3799C23.5799 60.3799 21.4398 58.2399 21.4398 55.5999C21.4398 52.96 23.5799 50.8199 26.2198 50.8199C28.8597 50.8199 30.9998 52.96 30.9998 55.5999ZM61.2998 55.5999C61.2998 58.2399 59.1597 60.3799 56.5198 60.3799C53.8799 60.3799 51.7398 58.2399 51.7398 55.5999C51.7398 52.96 53.8799 50.8199 56.5198 50.8199C59.1597 50.8199 61.2998 52.96 61.2998 55.5999Z" stroke="#F5F5F5" stroke-width="5" stroke-linecap="round" stroke-linejoin="round"/>
</g>
<defs>
<filter id="filter0_d_338_3878" x="0" y="0" width="68.1692" height="70.8799" filterUnits="userSpaceOnUse" color-interpolation-filters="sRGB">
<feFlood flood-opacity="0" result="BackgroundImageFix"/>
<feColorMatrix in="SourceAlpha" type="matrix" values="0 0 0 0 0 0 0 0 0 0 0 0 0 0 0 0 0 0 127 0" result="hardAlpha"/>
<feOffset dy="4"/>
<feGaussianBlur stdDeviation="2"/>
<feComposite in2="hardAlpha" operator="out"/>
<feColorMatrix type="matrix" values="0 0 0 0 0 0 0 0 0 0 0 0 0 0 0 0 0 0 0.25 0"/>
<feBlend mode="normal" in2="BackgroundImageFix" result="effect1_dropShadow_338_3878"/>
<feBlend mode="normal" in="SourceGraphic" in2="effect1_dropShadow_338_3878" result="shape"/>
</filter>
</defs>
</svg>
