<svg width="23" height="23" viewBox="0 0 23 23" fill="none" xmlns="http://www.w3.org/2000/svg">
<path d="M22.8101 11.753C22.8237 10.9766 22.742 10.2015 22.5666 9.44434H11.749V13.6351H18.0988C17.9785 14.3698 17.7079 15.0732 17.3031 15.7028C16.8983 16.3324 16.3677 16.8753 15.7433 17.2988L15.7212 17.4392L19.1417 20.0361L19.3785 20.0593C21.5548 18.0894 22.8097 15.1908 22.8097 11.753" fill="#4285F4"/>
<path d="M11.7493 22.7926C14.8601 22.7926 17.4717 21.7887 19.3794 20.0572L15.7435 17.2967C14.7707 17.9619 13.4648 18.4262 11.7493 18.4262C10.2922 18.4178 8.87491 17.96 7.69834 17.1176C6.52177 16.2753 5.64571 15.0912 5.19447 13.7334L5.05943 13.7447L1.50279 16.4423L1.4563 16.569C2.41419 18.4401 3.88424 20.0131 5.70206 21.1122C7.51988 22.2112 9.61381 22.7931 11.7497 22.7926" fill="#34A853"/>
<path d="M5.19419 13.7363C4.94217 13.0175 4.81212 12.263 4.80924 11.503C4.81388 10.7441 4.93912 9.99066 5.18046 9.26963L5.17404 9.11993L1.57379 6.37891L1.45602 6.4338C0.647957 8.00619 0.227051 9.74228 0.227051 11.5029C0.227051 13.2634 0.647957 14.9995 1.45602 16.5719L5.19419 13.7363Z" fill="#FBBC05"/>
<path d="M11.7492 4.57524C13.4002 4.55012 14.997 5.15274 16.2044 6.25665L19.4562 3.14485C17.3706 1.22725 14.6087 0.175087 11.7492 0.208793C9.61334 0.208295 7.51943 0.790099 5.70161 1.88915C3.88379 2.9882 2.41373 4.56116 1.45581 6.43217L5.18158 9.26799C5.63727 7.91041 6.51623 6.72724 7.69454 5.88531C8.87284 5.04338 10.2911 4.58516 11.7492 4.57524Z" fill="#EB4335"/>
</svg>
