<svg width="67" height="80" viewBox="0 0 67 80" fill="none" xmlns="http://www.w3.org/2000/svg">
<path d="M5.15198 5.32003C7.08417 3.36638 9.72563 2.23917 12.5018 2.18359C20.7472 2.18359 45.1528 19.129 60.4494 31.1543C61.7728 32.1939 62.8409 33.5114 63.5749 35.0096C64.3089 36.5078 64.6899 38.1484 64.6899 39.8103C64.6899 41.4721 64.3089 43.1127 63.5749 44.6109C62.8409 46.1091 61.7728 47.4267 60.4494 48.4662C45.1528 60.5056 20.7472 77.4228 12.5018 77.4228C9.72563 77.3672 7.08417 76.24 5.15198 74.2864M5.15198 5.32003C3.21979 7.27368 2.1532 9.89574 2.18413 12.6159V66.9905C2.1532 69.7107 3.21979 72.3327 5.15198 74.2864M5.15198 5.32003L29.9946 29.036L54.8372 52.7519M5.15198 74.2864L54.8372 26.9109" stroke="#E95322" stroke-width="4.36703" stroke-linecap="round" stroke-linejoin="round"/>
</svg>
