<svg width="39" height="27" viewBox="0 0 39 27" fill="none" xmlns="http://www.w3.org/2000/svg">
<path d="M6.89481 25.4531V13.5991C6.90421 10.3327 8.20597 7.20265 10.5157 4.89289C12.8255 2.58313 15.9555 1.28137 19.222 1.27197C22.4885 1.28137 25.6185 2.58313 27.9282 4.89289C30.238 7.20265 31.5397 10.3327 31.5491 13.5991V25.4328M13.7477 9.67652C14.3041 8.71703 15.1024 7.9204 16.063 7.366C17.0236 6.8116 18.1129 6.51886 19.222 6.51716C20.3317 6.51899 21.4216 6.81166 22.383 7.366C23.3444 7.92034 24.1437 8.71698 24.7013 9.67652M36.2958 15.3289C35.375 13.8586 33.4722 13.5025 31.834 13.4567H31.5491V25.4836C32.7489 25.5486 33.9447 25.2996 35.0188 24.7612C36.3925 23.9167 36.9318 22.2175 37.0946 20.7319C37.1508 20.2251 37.1796 19.7156 37.181 19.2056C37.2547 17.856 36.948 16.5127 36.2958 15.3289ZM2.16338 15.3289C3.08931 13.8586 4.99208 13.5025 6.63027 13.4567H6.91005V25.4836C5.712 25.5482 4.51786 25.2992 3.44545 24.7612C2.07181 23.9167 1.53249 22.2175 1.36969 20.7319C1.31348 20.2251 1.28465 19.7156 1.28324 19.2056C1.20776 17.8565 1.51271 16.5132 2.16338 15.3289Z" stroke="#E95322" stroke-width="2.54378" stroke-linecap="round" stroke-linejoin="round"/>
</svg>
