<svg width="82" height="72" viewBox="0 0 82 72" fill="none" xmlns="http://www.w3.org/2000/svg">
<path d="M68.2319 23.952V56.1227C68.2319 59.595 66.8526 62.9248 64.3973 65.3801C61.9421 67.8353 58.612 69.2149 55.1398 69.2149H49.5647V56.9847C49.5647 54.6409 48.6337 52.3929 46.9764 50.7356C45.3191 49.0783 43.0713 48.1473 40.7275 48.1473C38.3838 48.1473 36.136 49.0783 34.4787 50.7356C32.8214 52.3929 31.8903 54.6409 31.8903 56.9847V69.2149H26.3152C22.843 69.2149 19.5129 67.8353 17.0577 65.3801C14.6024 62.9248 13.2231 59.595 13.2231 56.1227V23.9521M78.7275 35.4372L54.3107 8.71825C52.5871 6.83078 50.489 5.32305 48.1503 4.29161C45.8116 3.26016 43.2836 2.72754 40.7275 2.72754C38.1715 2.72754 35.6435 3.26016 33.3048 4.29161C30.9661 5.32305 28.868 6.83078 27.1444 8.71825L2.72754 35.4372" stroke="#E95322" stroke-width="5.45506" stroke-linecap="round" stroke-linejoin="round"/>
</svg>
