<svg width="62" height="63" viewBox="0 0 62 63" fill="none" xmlns="http://www.w3.org/2000/svg">
<rect y="0.5" width="62" height="62" rx="20" fill="#F8F8F8"/>
<path d="M30.0958 31H11.0022M15.904 36.1468L12.1283 33.2817C11.7776 33.0143 11.4932 32.6695 11.2975 32.2743C11.1018 31.879 11 31.4439 11 31.0029C11 30.5618 11.1018 30.1268 11.2975 29.7315C11.4932 29.3362 11.7776 28.9915 12.1283 28.7241L15.904 25.8531M42.5371 18.4245V43.5754M23.1573 38.9829C26.6586 52.0135 36.5382 50.9807 36.5382 50.9807C36.5382 50.9807 46.4586 52.0135 49.919 38.9829C51.2787 33.7478 51.2787 28.2521 49.919 23.017C46.4469 9.98636 36.5382 11.0193 36.5382 11.0193C36.5382 11.0193 26.6178 9.98636 23.1573 23.017" stroke="#E95322" stroke-width="2" stroke-linecap="round" stroke-linejoin="round"/>
</svg>
