<svg width="65" height="80" viewBox="0 0 65 80" fill="none" xmlns="http://www.w3.org/2000/svg">
<path d="M14.8559 68.6561L14.1731 72.7193C14.0828 73.3 14.1192 73.8934 14.2799 74.4588C14.4406 75.0242 14.7218 75.5483 15.1042 75.995C15.4867 76.4417 15.9612 76.8005 16.4955 77.0469C17.0297 77.2933 17.611 77.4214 18.1995 77.4225H27.1577C27.8215 77.4321 28.467 77.2047 28.9778 76.7812C29.4886 76.3578 29.8312 75.7661 29.944 75.1126L33.6639 52.7654H45.8125C48.1159 52.7573 50.3925 52.2711 52.4978 51.3377C54.6031 50.4042 56.4911 49.0439 58.0421 47.343C59.5932 45.6421 60.7733 43.6378 61.5076 41.4573C62.2419 39.2767 62.5145 36.9675 62.3078 34.6762C62.0703 32.1373 61.2312 29.6913 59.8601 27.5404C58.4889 25.3894 56.625 23.5951 54.4224 22.3059M16.9874 68.6561C17.7108 68.6579 18.4108 68.4005 18.9604 67.9307C19.51 67.4609 19.8728 66.8099 19.9828 66.0958L24.1623 39.6576H35.7258C38.3744 39.6499 40.9916 39.0835 43.4059 37.9955C45.8202 36.9075 47.9772 35.3224 49.7357 33.3441C51.4942 31.3658 52.8144 29.0388 53.6101 26.5155C54.4057 23.9923 54.6588 21.3296 54.3527 18.7019C53.718 14.0849 51.4167 9.85836 47.8814 6.81681C44.3461 3.77526 39.8202 2.12814 35.1545 2.18502H19.0911C17.0463 2.1861 15.0689 2.91518 13.5138 4.24133C11.9588 5.56748 10.928 7.40382 10.6065 9.4207C10.6065 9.4207 4.71336 47.0742 2.24741 63.0763C2.1339 63.7634 2.17185 64.4669 2.35864 65.1379C2.54543 65.8088 2.87661 66.431 3.32896 66.9609C3.7813 67.4909 4.34393 67.9159 4.97767 68.2063C5.61141 68.4967 6.30099 68.6454 6.99823 68.6422L16.9874 68.6561ZM28.2861 12.7464H32.5771C34.6324 12.7085 36.6295 13.4282 38.187 14.7681C39.7444 16.1081 40.753 17.9742 41.0199 20.0099C41.151 21.164 41.0372 22.3327 40.6858 23.4399C40.3343 24.5472 39.7533 25.568 38.9803 26.4358C38.2074 27.3036 37.26 27.999 36.1999 28.4766C35.1398 28.9542 33.9908 29.2033 32.8279 29.2076H25.7366L28.2861 12.7464Z" stroke="#E95322" stroke-width="4.36703" stroke-linecap="round" stroke-linejoin="round"/>
</svg>
